<svg id="visual" viewBox="0 0 960 540" width="960" height="540" xmlns="http://www.w3.org/2000/svg" xmlns:xlink="http://www.w3.org/1999/xlink" version="1.1"><rect x="0" y="0" width="960" height="540" fill="#ffffff"></rect><defs><linearGradient id="grad1_0" x1="43.8%" y1="0%" x2="100%" y2="100%"><stop offset="14.444444444444446%" stop-color="#c9e6fd" stop-opacity="1"></stop><stop offset="85.55555555555554%" stop-color="#c9e6fd" stop-opacity="1"></stop></linearGradient></defs><defs><linearGradient id="grad1_1" x1="43.8%" y1="0%" x2="100%" y2="100%"><stop offset="14.444444444444446%" stop-color="#c9e6fd" stop-opacity="1"></stop><stop offset="85.55555555555554%" stop-color="#dceefe" stop-opacity="1"></stop></linearGradient></defs><defs><linearGradient id="grad1_2" x1="43.8%" y1="0%" x2="100%" y2="100%"><stop offset="14.444444444444446%" stop-color="#edf7fe" stop-opacity="1"></stop><stop offset="85.55555555555554%" stop-color="#dceefe" stop-opacity="1"></stop></linearGradient></defs><defs><linearGradient id="grad1_3" x1="43.8%" y1="0%" x2="100%" y2="100%"><stop offset="14.444444444444446%" stop-color="#edf7fe" stop-opacity="1"></stop><stop offset="85.55555555555554%" stop-color="#ffffff" stop-opacity="1"></stop></linearGradient></defs><defs><linearGradient id="grad2_0" x1="0%" y1="0%" x2="56.3%" y2="100%"><stop offset="14.444444444444446%" stop-color="#c9e6fd" stop-opacity="1"></stop><stop offset="85.55555555555554%" stop-color="#c9e6fd" stop-opacity="1"></stop></linearGradient></defs><defs><linearGradient id="grad2_1" x1="0%" y1="0%" x2="56.3%" y2="100%"><stop offset="14.444444444444446%" stop-color="#dceefe" stop-opacity="1"></stop><stop offset="85.55555555555554%" stop-color="#c9e6fd" stop-opacity="1"></stop></linearGradient></defs><defs><linearGradient id="grad2_2" x1="0%" y1="0%" x2="56.3%" y2="100%"><stop offset="14.444444444444446%" stop-color="#dceefe" stop-opacity="1"></stop><stop offset="85.55555555555554%" stop-color="#edf7fe" stop-opacity="1"></stop></linearGradient></defs><defs><linearGradient id="grad2_3" x1="0%" y1="0%" x2="56.3%" y2="100%"><stop offset="14.444444444444446%" stop-color="#ffffff" stop-opacity="1"></stop><stop offset="85.55555555555554%" stop-color="#edf7fe" stop-opacity="1"></stop></linearGradient></defs><g transform="translate(960, 0)"><path d="M0 486C-53.8 459 -107.7 432.1 -171.4 413.9C-235.2 395.7 -308.8 386.3 -343.7 343.7C-378.5 301 -374.5 225.1 -391.7 162.3C-409 99.4 -447.5 49.7 -486 0L0 0Z" fill="#f6fbff"></path><path d="M0 364.5C-40.4 344.3 -80.8 324.1 -128.6 310.4C-176.4 296.8 -231.6 289.7 -257.7 257.7C-283.9 225.7 -280.9 168.8 -293.8 121.7C-306.7 74.6 -335.6 37.3 -364.5 0L0 0Z" fill="#e5f2fe"></path><path d="M0 243C-26.9 229.5 -53.8 216 -85.7 206.9C-117.6 197.9 -154.4 193.2 -171.8 171.8C-189.2 150.5 -187.2 112.5 -195.9 81.1C-204.5 49.7 -223.7 24.9 -243 0L0 0Z" fill="#d2eafd"></path><path d="M0 121.5C-13.5 114.8 -26.9 108 -42.9 103.5C-58.8 98.9 -77.2 96.6 -85.9 85.9C-94.6 75.2 -93.6 56.3 -97.9 40.6C-102.2 24.9 -111.9 12.4 -121.5 0L0 0Z" fill="#c9e6fd"></path></g><g transform="translate(0, 540)"><path d="M0 -486C57.3 -469.1 114.7 -452.2 179.5 -433.3C244.3 -414.4 316.6 -393.6 343.7 -343.7C370.7 -293.8 352.5 -214.8 368.6 -152.7C384.8 -90.6 435.4 -45.3 486 0L0 0Z" fill="#f6fbff"></path><path d="M0 -364.5C43 -351.8 86 -339.1 134.6 -325C183.2 -310.8 237.5 -295.2 257.7 -257.7C278 -220.3 264.3 -161.1 276.5 -114.5C288.6 -67.9 326.6 -34 364.5 0L0 0Z" fill="#e5f2fe"></path><path d="M0 -243C28.7 -234.5 57.3 -226.1 89.7 -216.6C122.2 -207.2 158.3 -196.8 171.8 -171.8C185.3 -146.9 176.2 -107.4 184.3 -76.3C192.4 -45.3 217.7 -22.6 243 0L0 0Z" fill="#d2eafd"></path><path d="M0 -121.5C14.3 -117.3 28.7 -113 44.9 -108.3C61.1 -103.6 79.2 -98.4 85.9 -85.9C92.7 -73.4 88.1 -53.7 92.2 -38.2C96.2 -22.6 108.9 -11.3 121.5 0L0 0Z" fill="#c9e6fd"></path></g></svg>